<?xml version="1.0" encoding="UTF-8" standalone="no"?>
<svg
   xmlns:dc="http://purl.org/dc/elements/1.1/"
   xmlns:cc="http://creativecommons.org/ns#"
   xmlns:rdf="http://www.w3.org/1999/02/22-rdf-syntax-ns#"
   xmlns:svg="http://www.w3.org/2000/svg"
   xmlns="http://www.w3.org/2000/svg"
   viewBox="0 0 104.05 31.7875"
   height="31.7875"
   width="104.05"
   xml:space="preserve"
   version="1.1"
   id="svg2"><metadata
     id="metadata8"><rdf:RDF><cc:Work
         rdf:about=""><dc:format>image/svg+xml</dc:format><dc:type
           rdf:resource="http://purl.org/dc/dcmitype/StillImage" /></cc:Work></rdf:RDF></metadata><defs
     id="defs6" /><g
     transform="matrix(1.25,0,0,-1.25,0,31.7875)"
     id="g10"><g
       transform="scale(0.1,0.1)"
       id="g12"><path
         id="path14"
         style="fill:#24606d;fill-opacity:1;fill-rule:nonzero;stroke:none"
         d="m 120.664,227.285 c 0,-10.527 -7.019,-19.98 -18.086,-19.98 -11.0741,0 -19.7069,8.105 -35.91,8.105 -11.5977,0 -22.1289,-6.211 -22.1289,-17.551 0,-27.8 90.1559,-9.988 90.1559,-79.629 0,-38.6011 -31.851,-62.6245 -69.1012,-62.6245 C 44.8164,55.6055 0,60.4688 0,85.8398 c 0,10.5274 7.01953,19.1682 18.0859,19.1682 12.6875,0 27.8047,-10.5275 45.3516,-10.5275 17.8125,0 27.5313,9.9845 27.5313,23.2145 0,31.844 -90.1563,12.688 -90.1563,75.301 0,37.793 31.043,61.281 66.9414,61.281 15.1172,0 52.9101,-5.675 52.9101,-26.992" /><path
         id="path16"
         style="fill:#24606d;fill-opacity:1;fill-rule:nonzero;stroke:none"
         d="m 247.566,162.5 c -9.714,0 -18.355,7.559 -30.769,7.559 -22.141,0 -32.664,-19.707 -32.664,-39.676 0,-19.172 11.609,-39.1447 32.664,-39.1447 9.719,0 24.289,8.0976 28.879,8.0976 9.179,0 16.734,-7.8242 16.734,-17 0,-19.9843 -33.472,-26.7304 -47.508,-26.7304 -41.836,0 -69.636,34.2851 -69.636,74.7775 0,39.402 28.613,75.301 69.636,75.301 15.391,0 47.508,-5.664 47.508,-24.563 0,-8.094 -5.672,-18.621 -14.844,-18.621" /><path
         id="path18"
         style="fill:#24606d;fill-opacity:1;fill-rule:nonzero;stroke:none"
         d="m 309.133,130.383 c 0,-18.625 9.715,-39.1447 30.769,-39.1447 21.055,0 30.774,20.5197 30.774,39.1447 0,18.621 -9.446,39.676 -30.774,39.676 -21.328,0 -30.769,-21.055 -30.769,-39.676 z m 100.41,0 c 0,-40.4924 -27.805,-74.7775 -69.641,-74.7775 -41.836,0 -69.636,34.2851 -69.636,74.7775 0,39.402 28.613,75.301 69.636,75.301 41.028,0 69.641,-35.899 69.641,-75.301" /><path
         id="path20"
         style="fill:#24606d;fill-opacity:1;fill-rule:nonzero;stroke:none"
         d="m 495.43,91.2383 c 20.246,0 30.234,21.0587 30.234,39.1447 0,18.347 -9.988,39.676 -30.234,39.676 -20.782,0 -30.496,-19.434 -30.496,-38.332 0,-18.895 9.168,-40.4887 30.496,-40.4887 z m -69.375,91.2307 c 0,12.961 8.093,21.601 19.433,21.601 10.801,0 17.012,-5.937 19.446,-16.199 7.285,11.875 22.402,17.813 36.968,17.813 41.848,0 62.629,-39.133 62.629,-76.926 0,-36.7072 -24.836,-73.1525 -63.972,-73.1525 -12.153,0 -25.371,4.5898 -35.625,13.4961 l 0,-47.5 C 464.934,8.64062 456.824,0 445.488,0 434.148,0 426.055,8.64062 426.055,21.6016 l 0,160.8674" /><path
         id="path22"
         style="fill:#24606d;fill-opacity:1;fill-rule:nonzero;stroke:none"
         d="m 581.023,182.469 c 0,12.961 8.098,21.601 19.438,21.601 11.336,0 19.441,-8.64 19.441,-21.601 l 0,-69.364 c 0,-16.2027 12.141,-25.1089 25.098,-25.1089 12.961,0 25.105,8.9062 25.105,25.1089 l 0,69.364 c 0,12.961 8.098,21.601 19.438,21.601 11.336,0 19.434,-8.64 19.434,-21.601 l 0,-70.172 c 0,-34.5548 -22.954,-56.6915 -63.977,-56.6915 -41.023,0 -63.977,22.1367 -63.977,56.6915 l 0,70.172" /><path
         id="path24"
         style="fill:#24606d;fill-opacity:1;fill-rule:nonzero;stroke:none"
         d="m 812.938,160.34 c -7.286,0 -22.126,11.34 -34.813,11.34 -7.02,0 -13.23,-3.242 -13.23,-10.801 0,-18.086 67.488,-15.383 67.488,-59.649 0,-25.9175 -21.863,-45.6245 -55.34,-45.6245 -21.867,0 -54.262,12.4218 -54.262,29.9609 0,5.9453 5.949,17.2736 16.739,17.2736 15.121,0 21.867,-13.2228 40.226,-13.2228 11.875,0 15.383,3.7812 15.383,11.0668 0,17.824 -67.484,15.117 -67.484,59.656 0,26.992 21.867,45.344 52.636,45.344 19.16,0 48.586,-8.907 48.586,-28.067 0,-8.906 -6.75,-17.277 -15.929,-17.277" /></g></g></svg>